<mxfile host="app.diagrams.net" modified="2024-03-11T15:41:14.347Z" agent="Mozilla/5.0 (Windows NT 10.0; Win64; x64) AppleWebKit/537.36 (KHTML, like Gecko) Chrome/122.0.0.0 Safari/537.36" version="24.0.4" etag="0ViZHFKop0i3rv_LPHnR" type="github">
  <diagram name="Halaman-1" id="0ZO530XVYxlDw20r-sQt">
    <mxGraphModel>
      <root>
        <mxCell id="0" />
        <mxCell id="1" parent="0" />
      </root>
    </mxGraphModel>
  </diagram>
</mxfile>
